<svg xmlns="http://www.w3.org/2000/svg" viewBox="0 0 26.617 26.617" pointer-events="bounding-box">
<path d="M.148 19.79c-.1-.077-.148-.148-.148-.215 0-.043.015-.082.048-.115a.252.252 0 01.197-.099.43.43 0 01.215.068c1.847 1.047 3.881 1.866 6.109 2.457 2.226.592 4.533.887 6.916.887 1.516 0 3.059-.135 4.635-.405a28.068 28.068 0 004.715-1.244 3.82 3.82 0 01.331-.115c.109-.035.228-.077.349-.131a.558.558 0 01.331-.035c.109.022.188.07.233.148.03.056.051.117.063.182 0 .131-.063.236-.197.313-.179.129-.364.25-.555.353a9.904 9.904 0 00-.555.323c-1.422.766-2.983 1.34-4.688 1.72a22.69 22.69 0 01-4.959.57c-2.538 0-4.915-.413-7.122-1.236A19.889 19.889 0 01.148 19.79zM15.62 7.506c0-.324-.003-.657-.016-1.002a1.599 1.599 0 00-.312-.917 1.488 1.488 0 00-.698-.551 2.39 2.39 0 00-.861-.167h-.214a2.941 2.941 0 00-1.35.458c-.403.263-.663.655-.785 1.177a.683.683 0 01-.452.518l-2.713-.344a.809.809 0 01-.316-.147c-.103-.076-.132-.202-.091-.376.155-.719.424-1.326.807-1.815.385-.491.84-.892 1.367-1.202a6.204 6.204 0 011.719-.687 11.608 11.608 0 011.868-.286h.576a9.54 9.54 0 012.222.286c.789.19 1.474.531 2.055 1.021.34.292.595.613.768.955.17.343.285.703.352 1.078.066.375.099.77.099 1.183v5.456c0 .635.11 1.123.328 1.468.218.346.464.673.73.983a.546.546 0 01.128.343.382.382 0 01-.161.306c-.273.241-.625.522-1.058.843-.433.321-.794.602-1.082.843-.2.125-.443.136-.731.031-.455-.366-.77-.652-.949-.852l-.679-.787a7.731 7.731 0 01-1.325 1.033 5.52 5.52 0 01-1.328.575c-.604.125-1.279.189-2.02.189-1.173 0-2.156-.331-2.95-.99-.792-.66-1.188-1.649-1.188-2.968 0-1.089.272-1.999.818-2.729.546-.728 1.273-1.275 2.189-1.643.47-.2.97-.353 1.504-.458a21.085 21.085 0 011.667-.26c.382-.043.746-.077 1.095-.1.348-.022.679-.056.985-.1v-.365h.002zm0 2.518c-.361 0-.725.011-1.083.032a7.276 7.276 0 00-1.018.135 3.926 3.926 0 00-1.507.833c-.418.378-.628.934-.628 1.67 0 .587.154 1.061.464 1.417.31.356.734.534 1.274.534a.967.967 0 00.23-.024.704.704 0 01.167-.026c.697-.154 1.219-.549 1.573-1.184.319-.479.488-.94.503-1.385.018-.444.024-.928.024-1.451v-.551h.001zm9.125 13.31c-.115.109-.221.143-.316.099-.091-.044-.118-.132-.072-.263l.315-.758c.121-.309.23-.614.336-.916.106-.302.176-.576.206-.825.033-.247.006-.425-.082-.535-.134-.176-.431-.274-.892-.297h-.282c-.376 0-.751.016-1.125.05a2.74 2.74 0 01-.579.065 1.89 1.89 0 00-.513.067c-.13 0-.209-.04-.23-.116-.021-.077.031-.161.164-.249.343-.22.728-.4 1.158-.544a8.919 8.919 0 011.837-.214c.151 0 .306.006.458.017.367.023.667.061.904.115.236.057.394.117.479.182.021.044.045.102.069.173s.037.162.037.271v.134c0 .218-.045.488-.133.807-.085.317-.2.639-.34.963-.139.326-.33.647-.566.966a3.705 3.705 0 01-.833.808z"></path></svg>