<?xml version="1.0" encoding="UTF-8"?>
<svg xmlns="http://www.w3.org/2000/svg" xmlns:xlink="http://www.w3.org/1999/xlink" width="274.25pt" height="157.5pt" viewBox="0 0 274.25 157.5" version="1.1">
<defs>
<clipPath id="clip1">
  <path d="M 117 105 L 150 105 L 150 157.5 L 117 157.5 Z M 117 105 "/>
</clipPath>
<clipPath id="clip2">
  <path d="M 156 121 L 185 121 L 185 157.5 L 156 157.5 Z M 156 121 "/>
</clipPath>
<clipPath id="clip3">
  <path d="M 208 121 L 240 121 L 240 157.5 L 208 157.5 Z M 208 121 "/>
</clipPath>
<clipPath id="clip4">
  <path d="M 242 121 L 274.25 121 L 274.25 157.5 L 242 157.5 Z M 242 121 "/>
</clipPath>
</defs>
<g id="surface1">
<path style=" stroke:none;fill-rule:nonzero;fill:rgb(92.89856%,10.998535%,13.699341%);fill-opacity:1;" d="M 33.613281 83.613281 C 22.289063 83.613281 13.109375 74.429688 13.109375 63.109375 C 13.109375 51.785156 22.289063 42.601563 33.613281 42.601563 C 41.921875 42.601563 49.058594 47.550781 52.28125 54.652344 L 66.113281 54.652344 C 62.359375 40.1875 49.253906 29.492188 33.613281 29.492188 C 15.050781 29.492188 0 44.546875 0 63.109375 C 0 81.671875 15.050781 96.722656 33.613281 96.722656 C 49.105469 96.722656 62.113281 86.230469 66.007813 71.976563 L 52.082031 71.976563 C 48.773438 78.851563 41.757813 83.613281 33.613281 83.613281 "/>
<path style=" stroke:none;fill-rule:nonzero;fill:rgb(92.89856%,10.998535%,13.699341%);fill-opacity:1;" d="M 202.515625 83.34375 C 194.644531 83.34375 188.261719 76.960938 188.261719 69.089844 C 188.261719 61.21875 194.644531 54.832031 202.515625 54.832031 C 210.386719 54.832031 216.769531 61.21875 216.769531 69.089844 C 216.769531 76.960938 210.386719 83.34375 202.515625 83.34375 M 202.515625 42.691406 C 187.933594 42.691406 176.117188 54.511719 176.117188 69.089844 C 176.117188 83.664063 187.933594 95.484375 202.515625 95.484375 C 217.09375 95.484375 228.910156 83.664063 228.910156 69.089844 C 228.910156 54.511719 217.09375 42.691406 202.515625 42.691406 "/>
<path style=" stroke:none;fill-rule:nonzero;fill:rgb(92.89856%,10.998535%,13.699341%);fill-opacity:1;" d="M 111.910156 87.375 C 102.285156 88.0625 102.976563 74.796875 110.539063 73.832031 C 118.097656 72.867188 122.773438 70.1875 122.773438 70.1875 C 122.773438 70.1875 122.910156 70.878906 122.910156 74.863281 C 122.910156 78.847656 121.535156 86.6875 111.910156 87.375 M 123.324219 91.222656 L 123.324219 96.3125 L 136.316406 96.3125 L 135.835938 55.066406 C 135.835938 55.066406 136.523438 43.105469 114.800781 43.105469 C 93.078125 43.105469 92.320313 60.222656 92.941406 60.839844 L 106.277344 60.839844 C 106.277344 60.839844 106.414063 51.351563 117.960938 53.964844 C 117.960938 53.964844 123.324219 53.964844 123.050781 59.191406 C 122.773438 64.414063 114.523438 64.414063 109.574219 64.414063 C 104.625 64.414063 85.515625 69.222656 94.175781 90.398438 C 94.175781 90.398438 98.578125 97.960938 111.773438 95.898438 C 111.773438 95.898438 117.960938 95.625 122.910156 91.359375 C 127.859375 87.097656 123.324219 91.222656 123.324219 91.222656 "/>
<path style=" stroke:none;fill-rule:nonzero;fill:rgb(92.89856%,10.998535%,13.699341%);fill-opacity:1;" d="M 174.179688 57.4375 C 172.773438 56.359375 157.703125 54.859375 157.703125 70.191406 L 157.703125 95.761719 L 144.722656 95.761719 L 144.722656 45.597656 L 157.703125 45.597656 L 157.703125 51.042969 C 157.703125 51.042969 161.886719 43.824219 174.179688 43.414063 "/>
<path style=" stroke:none;fill-rule:nonzero;fill:rgb(92.89856%,10.998535%,13.699341%);fill-opacity:1;" d="M 71.765625 95.761719 L 84.691406 95.761719 L 84.691406 29.765625 L 71.765625 29.765625 Z M 71.765625 95.761719 "/>
<path style=" stroke:none;fill-rule:nonzero;fill:rgb(92.89856%,10.998535%,13.699341%);fill-opacity:1;" d="M 200.660156 32.585938 L 213.238281 32.585938 L 213.238281 0.00390625 L 200.660156 0.00390625 Z M 200.660156 32.585938 "/>
<path style=" stroke:none;fill-rule:nonzero;fill:rgb(92.89856%,10.998535%,13.699341%);fill-opacity:1;" d="M 239.636719 67.851563 L 272.21875 67.851563 L 272.21875 55.269531 L 239.636719 55.269531 Z M 239.636719 67.851563 "/>
<path style=" stroke:none;fill-rule:nonzero;fill:rgb(92.89856%,10.998535%,13.699341%);fill-opacity:1;" d="M 232.726563 45.390625 L 224.242188 36.90625 L 255.53125 5.621094 L 264.015625 14.101563 Z M 232.726563 45.390625 "/>
<path style=" stroke:none;fill-rule:nonzero;fill:rgb(92.89856%,10.998535%,13.699341%);fill-opacity:1;" d="M 240.046875 80.761719 L 252.253906 80.761719 L 252.253906 83.972656 L 248.15625 83.972656 L 248.15625 93.753906 L 244.148438 93.753906 L 244.148438 83.972656 L 240.046875 83.972656 "/>
<path style=" stroke:none;fill-rule:nonzero;fill:rgb(92.89856%,10.998535%,13.699341%);fill-opacity:1;" d="M 254.03125 80.761719 L 259.3125 80.761719 L 261.339844 88.667969 L 263.359375 80.761719 L 268.632813 80.761719 L 268.632813 93.753906 L 265.347656 93.753906 L 265.347656 83.847656 L 262.816406 93.753906 L 259.839844 93.753906 L 257.316406 83.847656 L 257.316406 93.753906 L 254.03125 93.753906 "/>
<path style=" stroke:none;fill-rule:nonzero;fill:rgb(13.299561%,11.799622%,12.199402%);fill-opacity:1;" d="M 54.898438 122.035156 L 63.113281 122.035156 L 63.113281 127.441406 L 63.257813 127.441406 C 64.027344 125.804688 65.265625 124.351563 66.96875 123.078125 C 68.675781 121.804688 70.972656 121.167969 73.855469 121.167969 C 79.285156 121.167969 82.890625 123.304688 84.667969 127.585938 C 85.917969 125.375 87.480469 123.753906 89.355469 122.71875 C 91.226563 121.683594 93.460938 121.167969 96.058594 121.167969 C 98.363281 121.167969 100.3125 121.554688 101.894531 122.324219 C 103.480469 123.089844 104.769531 124.148438 105.753906 125.496094 C 106.738281 126.839844 107.449219 128.414063 107.878906 130.214844 C 108.3125 132.019531 108.527344 133.953125 108.527344 136.019531 L 108.527344 156.636719 L 99.878906 156.636719 L 99.878906 137.027344 C 99.878906 135.972656 99.78125 134.949219 99.589844 133.964844 C 99.398438 132.976563 99.058594 132.117188 98.582031 131.371094 C 98.097656 130.625 97.453125 130.035156 96.636719 129.601563 C 95.816406 129.171875 94.761719 128.953125 93.460938 128.953125 C 92.117188 128.953125 90.976563 129.207031 90.039063 129.710938 C 89.101563 130.214844 88.332031 130.890625 87.730469 131.726563 C 87.128906 132.570313 86.699219 133.53125 86.433594 134.613281 C 86.167969 135.695313 86.039063 136.789063 86.039063 137.894531 L 86.039063 156.636719 L 77.386719 156.636719 L 77.386719 136.019531 C 77.386719 133.855469 76.929688 132.140625 76.019531 130.863281 C 75.105469 129.59375 73.589844 128.953125 71.476563 128.953125 C 70.035156 128.953125 68.820313 129.195313 67.835938 129.675781 C 66.851563 130.15625 66.035156 130.804688 65.386719 131.621094 C 64.734375 132.4375 64.269531 133.375 63.980469 134.433594 C 63.691406 135.492188 63.546875 136.597656 63.546875 137.75 L 63.546875 156.636719 L 54.898438 156.636719 "/>
<g clip-path="url(#clip1)" clip-rule="nonzero">
<path style=" stroke:none;fill-rule:nonzero;fill:rgb(13.299561%,11.799622%,12.199402%);fill-opacity:1;" d="M 137.507813 105.597656 L 147.3125 105.597656 L 137.144531 115.980469 L 130.371094 115.980469 Z M 149.546875 156.636719 L 141.328125 156.636719 L 141.328125 151.082031 L 141.183594 151.082031 C 140.367188 152.816406 139.117188 154.316406 137.4375 155.589844 C 135.753906 156.863281 133.46875 157.5 130.589844 157.5 C 128.28125 157.5 126.320313 157.125 124.714844 156.382813 C 123.101563 155.640625 121.792969 154.628906 120.785156 153.355469 C 119.773438 152.082031 119.054688 150.628906 118.621094 148.992188 C 118.1875 147.363281 117.972656 145.65625 117.972656 143.875 L 117.972656 122.035156 L 126.621094 122.035156 L 126.621094 139.550781 C 126.621094 140.511719 126.671875 141.582031 126.765625 142.757813 C 126.863281 143.9375 127.113281 145.039063 127.523438 146.074219 C 127.929688 147.109375 128.554688 147.972656 129.398438 148.667969 C 130.238281 149.367188 131.425781 149.714844 132.964844 149.714844 C 134.40625 149.714844 135.621094 149.476563 136.605469 148.992188 C 137.589844 148.515625 138.410156 147.867188 139.058594 147.046875 C 139.707031 146.230469 140.175781 145.292969 140.464844 144.238281 C 140.75 143.179688 140.894531 142.074219 140.894531 140.917969 L 140.894531 122.035156 L 149.546875 122.035156 "/>
</g>
<g clip-path="url(#clip2)" clip-rule="nonzero">
<path style=" stroke:none;fill-rule:nonzero;fill:rgb(13.299561%,11.799622%,12.199402%);fill-opacity:1;" d="M 177.804688 131.621094 C 176.117188 129.265625 173.863281 128.089844 171.027344 128.089844 C 169.871094 128.089844 168.742188 128.378906 167.636719 128.953125 C 166.53125 129.53125 165.980469 130.46875 165.980469 131.765625 C 165.980469 132.824219 166.4375 133.59375 167.351563 134.074219 C 168.261719 134.554688 169.414063 134.960938 170.808594 135.296875 C 172.203125 135.636719 173.703125 135.980469 175.316406 136.34375 C 176.925781 136.703125 178.425781 137.257813 179.820313 138 C 181.214844 138.746094 182.367188 139.769531 183.28125 141.066406 C 184.195313 142.359375 184.652344 144.140625 184.652344 146.398438 C 184.652344 148.464844 184.203125 150.207031 183.316406 151.625 C 182.429688 153.042969 181.273438 154.183594 179.855469 155.050781 C 178.4375 155.914063 176.839844 156.539063 175.0625 156.925781 C 173.285156 157.308594 171.507813 157.5 169.730469 157.5 C 167.035156 157.5 164.5625 157.117188 162.304688 156.347656 C 160.046875 155.578125 158.027344 154.183594 156.25 152.167969 L 162.015625 146.761719 C 163.121094 148.011719 164.3125 149.03125 165.585938 149.824219 C 166.855469 150.613281 168.40625 151.011719 170.234375 151.011719 C 170.859375 151.011719 171.507813 150.9375 172.179688 150.796875 C 172.851563 150.652344 173.476563 150.414063 174.054688 150.074219 C 174.632813 149.738281 175.101563 149.320313 175.460938 148.8125 C 175.820313 148.308594 176 147.722656 176 147.046875 C 176 145.847656 175.542969 144.957031 174.632813 144.378906 C 173.71875 143.804688 172.5625 143.335938 171.171875 142.976563 C 169.777344 142.613281 168.273438 142.277344 166.664063 141.964844 C 165.054688 141.65625 163.554688 141.148438 162.160156 140.453125 C 160.765625 139.757813 159.613281 138.78125 158.699219 137.53125 C 157.785156 136.28125 157.328125 134.554688 157.328125 132.34375 C 157.328125 130.421875 157.726563 128.75 158.519531 127.332031 C 159.3125 125.914063 160.359375 124.75 161.65625 123.835938 C 162.953125 122.921875 164.441406 122.25 166.125 121.820313 C 167.808594 121.386719 169.511719 121.167969 171.242188 121.167969 C 173.550781 121.167969 175.832031 121.566406 178.089844 122.355469 C 180.351563 123.152344 182.175781 124.507813 183.570313 126.429688 "/>
</g>
<path style=" stroke:none;fill-rule:nonzero;fill:rgb(13.299561%,11.799622%,12.199402%);fill-opacity:1;" d="M 191.5 122.035156 L 200.148438 122.035156 L 200.148438 156.636719 L 191.5 156.636719 Z M 190.273438 110.285156 C 190.273438 108.890625 190.789063 107.679688 191.824219 106.644531 C 192.855469 105.609375 194.167969 105.09375 195.75 105.09375 C 197.339844 105.09375 198.671875 105.585938 199.753906 106.570313 C 200.835938 107.558594 201.375 108.792969 201.375 110.285156 C 201.375 111.773438 200.835938 113.011719 199.753906 113.996094 C 198.671875 114.980469 197.339844 115.476563 195.75 115.476563 C 194.167969 115.476563 192.855469 114.957031 191.824219 113.921875 C 190.789063 112.890625 190.273438 111.679688 190.273438 110.285156 "/>
<g clip-path="url(#clip3)" clip-rule="nonzero">
<path style=" stroke:none;fill-rule:nonzero;fill:rgb(13.299561%,11.799622%,12.199402%);fill-opacity:1;" d="M 233.742188 132.414063 C 232.730469 131.355469 231.675781 130.515625 230.570313 129.890625 C 229.464844 129.265625 228.335938 128.953125 227.183594 128.953125 C 225.597656 128.953125 224.179688 129.242188 222.929688 129.820313 C 221.675781 130.394531 220.609375 131.164063 219.71875 132.125 C 218.832031 133.089844 218.15625 134.191406 217.703125 135.441406 C 217.246094 136.691406 217.015625 137.988281 217.015625 139.335938 C 217.015625 140.679688 217.246094 141.976563 217.703125 143.226563 C 218.15625 144.476563 218.832031 145.582031 219.71875 146.542969 C 220.609375 147.503906 221.675781 148.273438 222.929688 148.851563 C 224.179688 149.425781 225.597656 149.714844 227.183594 149.714844 C 228.527344 149.714844 229.777344 149.4375 230.929688 148.886719 C 232.082031 148.335938 233.066406 147.53125 233.886719 146.472656 L 239.652344 152.671875 C 238.789063 153.535156 237.789063 154.28125 236.660156 154.90625 C 235.53125 155.53125 234.390625 156.035156 233.238281 156.417969 C 232.082031 156.804688 230.976563 157.078125 229.921875 157.25 C 228.863281 157.417969 227.949219 157.5 227.183594 157.5 C 224.585938 157.5 222.136719 157.066406 219.828125 156.203125 C 217.523438 155.339844 215.527344 154.113281 213.84375 152.523438 C 212.164063 150.9375 210.828125 149.03125 209.84375 146.796875 C 208.859375 144.558594 208.367188 142.074219 208.367188 139.335938 C 208.367188 136.597656 208.859375 134.105469 209.84375 131.875 C 210.828125 129.640625 212.164063 127.726563 213.84375 126.144531 C 215.527344 124.558594 217.523438 123.332031 219.828125 122.46875 C 222.136719 121.601563 224.585938 121.167969 227.183594 121.167969 C 229.390625 121.167969 231.613281 121.589844 233.851563 122.429688 C 236.085938 123.273438 238.042969 124.605469 239.722656 126.429688 "/>
</g>
<g clip-path="url(#clip4)" clip-rule="nonzero">
<path style=" stroke:none;fill-rule:nonzero;fill:rgb(13.299561%,11.799622%,12.199402%);fill-opacity:1;" d="M 265.964844 141.136719 L 264.160156 141.136719 C 262.960938 141.136719 261.613281 141.1875 260.121094 141.28125 C 258.632813 141.378906 257.230469 141.605469 255.90625 141.964844 C 254.585938 142.328125 253.46875 142.855469 252.554688 143.550781 C 251.644531 144.246094 251.1875 145.222656 251.1875 146.472656 C 251.1875 147.289063 251.367188 147.972656 251.726563 148.527344 C 252.085938 149.078125 252.554688 149.546875 253.132813 149.933594 C 253.710938 150.316406 254.359375 150.59375 255.078125 150.761719 C 255.800781 150.929688 256.519531 151.011719 257.242188 151.011719 C 260.222656 151.011719 262.417969 150.304688 263.835938 148.886719 C 265.253906 147.46875 265.964844 145.53125 265.964844 143.082031 Z M 266.46875 151.875 L 266.253906 151.875 C 265 153.847656 263.414063 155.277344 261.496094 156.167969 C 259.570313 157.054688 257.457031 157.5 255.148438 157.5 C 253.566406 157.5 252.015625 157.28125 250.5 156.851563 C 248.984375 156.417969 247.640625 155.769531 246.464844 154.90625 C 245.285156 154.042969 244.335938 152.957031 243.617188 151.660156 C 242.894531 150.363281 242.535156 148.851563 242.535156 147.117188 C 242.535156 145.246094 242.871094 143.648438 243.546875 142.328125 C 244.214844 141.003906 245.117188 139.902344 246.246094 139.011719 C 247.375 138.121094 248.6875 137.410156 250.175781 136.882813 C 251.664063 136.355469 253.214844 135.960938 254.828125 135.695313 C 256.4375 135.429688 258.058594 135.261719 259.691406 135.191406 C 261.324219 135.117188 262.863281 135.082031 264.304688 135.082031 L 266.46875 135.082031 L 266.46875 134.144531 C 266.46875 131.980469 265.722656 130.359375 264.234375 129.277344 C 262.742188 128.199219 260.84375 127.65625 258.539063 127.65625 C 256.710938 127.65625 255.007813 127.980469 253.421875 128.628906 C 251.835938 129.277344 250.464844 130.15625 249.3125 131.261719 L 244.769531 126.71875 C 246.691406 124.75 248.9375 123.332031 251.511719 122.46875 C 254.078125 121.601563 256.734375 121.167969 259.476563 121.167969 C 261.925781 121.167969 263.992188 121.445313 265.675781 121.996094 C 267.355469 122.550781 268.75 123.257813 269.855469 124.121094 C 270.960938 124.988281 271.8125 125.988281 272.414063 127.117188 C 273.015625 128.242188 273.449219 129.386719 273.714844 130.539063 C 273.976563 131.695313 274.132813 132.8125 274.183594 133.894531 C 274.230469 134.972656 274.253906 135.921875 274.253906 136.738281 L 274.253906 156.636719 L 266.46875 156.636719 "/>
</g>
</g>
</svg>
