<svg xmlns="http://www.w3.org/2000/svg" viewBox="0 0 97.848 97.848" pointer-events="bounding-box">
<path d="M0 70.818h17.838v5.406H0zM0 63.791h17.838v5.408H0zM0 56.764h17.838v5.408H0zM0 49.736h17.838v5.405H0zM0 42.709h17.838v5.404H0zM20.001 70.818h17.84v5.406h-17.84zM20.001 63.791h17.84v5.408h-17.84zM20.001 56.764h17.84v5.408h-17.84zM40.004 70.818h17.84v5.406h-17.84zM40.004 63.791h17.84v5.408h-17.84zM40.004 56.764h17.84v5.408h-17.84zM40.004 49.736h17.84v5.405h-17.84zM40.004 42.709h17.84v5.404h-17.84zM40.004 35.68h17.84v5.406h-17.84zM40.004 28.653h17.84v5.407h-17.84zM60.005 70.818h17.841v5.406H60.005zM60.005 63.791h17.841v5.408H60.005zM60.005 56.764h17.841v5.408H60.005zM60.005 49.736h17.841v5.405H60.005zM60.005 42.709h17.841v5.404H60.005zM80.008 70.818h17.84v5.406h-17.84zM80.008 63.791h17.84v5.408h-17.84zM80.008 56.762h17.84v5.406h-17.84zM80.008 49.736h17.84v5.406h-17.84zM80.008 42.707h17.84v5.407h-17.84zM80.008 35.681h17.84v5.404h-17.84zM80.008 28.652h17.84v5.404h-17.84zM80.008 21.623h17.84v5.406h-17.84z"></path></svg>