<svg xmlns="http://www.w3.org/2000/svg" viewBox="0 0 30 30">
<path d="M13.894 1.056c-4.584.4-8.563 2.873-10.909 6.783-1.036 1.725-1.645 3.554-1.909 5.723-.076.62-.064 2.37.024 3.042.416 3.297 1.825 6.147 4.151 8.404a13.923 13.923 0 008.463 3.902c1.024.092 2.625.032 3.634-.14 5.82-1 10.416-5.595 11.417-11.414.172-1.008.232-2.61.14-3.634-.372-4.026-2.458-7.672-5.764-10.069-1.874-1.36-4.04-2.213-6.405-2.521-.717-.092-2.182-.132-2.842-.076zm1.16 7.444c3.395.268 6.193.976 8.587 2.169 1.185.592 1.385.764 1.525 1.32.152.589-.136 1.185-.7 1.461-.193.096-.273.112-.565.112h-.34l-.56-.304c-2.21-1.196-4.7-1.873-7.986-2.165-.777-.068-3.363-.068-4.124 0-1.325.12-2.485.316-3.518.592-.837.228-1.25.172-1.65-.228A1.287 1.287 0 015.677 9.7c.252-.284.468-.376 1.349-.6 1.385-.352 2.898-.56 4.767-.656.496-.024 2.706.012 3.263.056zm-.664 4.802c2.97.252 5.82 1.1 8.05 2.405.484.28.677.48.765.789.16.544-.16 1.156-.693 1.332a1.48 1.48 0 01-.404.028c-.248-.012-.312-.04-.889-.36-1.265-.704-2.474-1.168-4.03-1.549-2.92-.716-6.242-.724-8.9-.02-.82.22-.844.225-1.056.197a1.045 1.045 0 01-.809-.549c-.1-.18-.116-.256-.116-.512 0-.26.016-.328.124-.52.18-.316.368-.444.88-.593 1.218-.356 2.699-.6 4.164-.688.68-.04 2.202-.02 2.914.04zm.344 4.582c2.218.237 4.155.845 5.98 1.873.637.36.805.577.777 1.013-.02.336-.164.552-.472.708-.34.176-.516.144-1.149-.216-3.15-1.78-6.93-2.197-11.484-1.257-.465.097-.689.125-.801.105-.44-.085-.697-.393-.697-.845 0-.356.149-.608.44-.76.385-.196 2.763-.58 4.224-.68.716-.049 2.482-.017 3.182.06z"></path></svg>