<?xml version="1.0" standalone="no"?>
<svg version="1.0" xmlns="http://www.w3.org/2000/svg"
 width="512.000000pt" height="512.000000pt" viewBox="0 0 512.000000 512.000000"
 preserveAspectRatio="xMidYMid meet">

<g transform="translate(0.000000,512.000000) scale(0.100000,-0.100000)"
fill="#000000" stroke="none">
<path d="M0 2560 l0 -2560 2560 0 2560 0 0 2560 0 2560 -2560 0 -2560 0 0
-2560z m1679 663 c142 -142 270 -269 285 -283 l27 -24 284 284 285 285 285
-285 284 -284 27 24 c15 14 144 142 286 284 l260 259 286 -286 287 -287 -285
-285 -285 -285 -287 287 -286 286 -282 -281 c-155 -155 -285 -282 -290 -282
-5 0 -136 127 -290 282 l-281 282 -287 -287 -287 -287 -285 285 -285 285 285
285 c157 157 286 285 288 285 2 0 119 -116 261 -257z m1168 -1169 l286 -286
-286 -286 -287 -287 -287 287 -286 286 284 286 c156 157 285 285 287 285 2 1
132 -128 289 -285z"/>
</g>
</svg>
