<?xml version="1.0" encoding="utf-8"?>
<!-- Svg Vector Icons : http://www.onlinewebfonts.com/icon -->
<!DOCTYPE svg PUBLIC "-//W3C//DTD SVG 1.1//EN" "http://www.w3.org/Graphics/SVG/1.1/DTD/svg11.dtd">
<svg version="1.1" xmlns="http://www.w3.org/2000/svg" xmlns:xlink="http://www.w3.org/1999/xlink" x="0px" y="0px" viewBox="0 0 1000 1000" enable-background="new 0 0 1000 1000" xml:space="preserve">
<metadata> Svg Vector Icons : http://www.onlinewebfonts.com/icon </metadata>
<g><g><g><path d="M937.9,10H62.1C33.3,10,10,33.3,10,62.1v875.7c0,28.8,23.3,52.1,52.1,52.1h875.7c28.8,0,52.1-23.3,52.1-52.1V62.1C990,33.3,966.7,10,937.9,10z M890.3,691.2c-9.9,43-45.1,74.7-87.4,79.5C702.6,781.9,601.1,782,500,781.9c-101.1,0.1-202.6,0-302.9-11.2c-42.3-4.7-77.5-36.5-87.4-79.5C95.6,629.9,95.6,563.1,95.6,500c0-63.1,0.2-129.9,14.3-191.2c9.9-43,45-74.7,87.4-79.5c100.3-11.2,201.8-11.2,302.9-11.2c101-0.1,202.6,0,302.9,11.2c42.3,4.7,77.5,36.5,87.4,79.5c14.1,61.3,14,128.1,14,191.2C904.4,563.1,904.4,629.9,890.3,691.2z"/><path d="M395.6,625.5c85.9-44.6,171.2-88.7,257.2-133.3c-86.3-45-171.4-89.4-257.2-134.2C395.6,447.5,395.6,536.1,395.6,625.5z"/></g></g><g></g><g></g><g></g><g></g><g></g><g></g><g></g><g></g><g></g><g></g><g></g><g></g><g></g><g></g><g></g></g>
</svg>